<mxfile modified="2021-02-08T12:05:51.727Z" host="app.diagrams.net" agent="5.0 (Windows)" etag="mNEm6NXEKgT058Gs0Wxn" version="13.10.2" type="github">
  <diagram id="Ht1M8jgEwFfnCIfOTk4-" name="Page-1">
    <mxGraphModel dx="1422" dy="1590" grid="1" gridSize="10" guides="1" tooltips="1" connect="1" arrows="1" fold="1" page="1" pageScale="1" pageWidth="1169" pageHeight="827" math="0" shadow="0">
      <root>
        <mxCell id="0" />
        <mxCell id="1" parent="0" />
        <mxCell id="lW3eZDPAeLyrzUM5OH_k-12" style="edgeStyle=orthogonalEdgeStyle;rounded=0;orthogonalLoop=1;jettySize=auto;html=1;fontSize=14;" edge="1" parent="1" source="lW3eZDPAeLyrzUM5OH_k-1" target="lW3eZDPAeLyrzUM5OH_k-10">
          <mxGeometry relative="1" as="geometry" />
        </mxCell>
        <mxCell id="lW3eZDPAeLyrzUM5OH_k-1" value="&lt;div&gt;FP-CLIENT&lt;br&gt;&lt;/div&gt;&lt;div&gt;feature/testing&lt;/div&gt;" style="verticalLabelPosition=bottom;html=1;verticalAlign=top;align=center;strokeColor=none;fillColor=#00BEF2;shape=mxgraph.azure.bitbucket_code_source;fontSize=14;" vertex="1" parent="1">
          <mxGeometry x="20" y="20" width="100" height="100" as="geometry" />
        </mxCell>
        <mxCell id="lW3eZDPAeLyrzUM5OH_k-90" style="edgeStyle=orthogonalEdgeStyle;rounded=0;orthogonalLoop=1;jettySize=auto;html=1;fontSize=14;" edge="1" parent="1" source="lW3eZDPAeLyrzUM5OH_k-3" target="lW3eZDPAeLyrzUM5OH_k-8">
          <mxGeometry relative="1" as="geometry" />
        </mxCell>
        <mxCell id="lW3eZDPAeLyrzUM5OH_k-3" value="&lt;div&gt;Aplication service&lt;/div&gt;&lt;div&gt;acc-gezinsplan&lt;br&gt;&lt;/div&gt;" style="verticalLabelPosition=bottom;html=1;verticalAlign=top;align=center;strokeColor=none;fillColor=#00BEF2;shape=mxgraph.azure.azure_website;pointerEvents=1;fontSize=14;" vertex="1" parent="1">
          <mxGeometry x="650" y="363" width="50" height="50" as="geometry" />
        </mxCell>
        <mxCell id="lW3eZDPAeLyrzUM5OH_k-105" style="edgeStyle=orthogonalEdgeStyle;rounded=0;orthogonalLoop=1;jettySize=auto;html=1;fontSize=14;" edge="1" parent="1" source="lW3eZDPAeLyrzUM5OH_k-5" target="lW3eZDPAeLyrzUM5OH_k-3">
          <mxGeometry relative="1" as="geometry" />
        </mxCell>
        <mxCell id="lW3eZDPAeLyrzUM5OH_k-5" value="fp-admin-acceptance" style="verticalLabelPosition=bottom;html=1;verticalAlign=top;align=center;strokeColor=none;fillColor=#00BEF2;shape=mxgraph.azure.mysql_database;fontSize=14;" vertex="1" parent="1">
          <mxGeometry x="960" y="450" width="70" height="80" as="geometry" />
        </mxCell>
        <mxCell id="lW3eZDPAeLyrzUM5OH_k-8" value="&lt;div&gt;Storage account&lt;/div&gt;&lt;div&gt;psasabendhybrid200501&lt;br&gt;&lt;/div&gt;&lt;div&gt;&lt;br&gt;&lt;/div&gt;" style="verticalLabelPosition=bottom;html=1;verticalAlign=top;align=center;strokeColor=none;fillColor=#00BEF2;shape=mxgraph.azure.storage;pointerEvents=1;fontSize=14;" vertex="1" parent="1">
          <mxGeometry x="810" y="290" width="50" height="40" as="geometry" />
        </mxCell>
        <mxCell id="lW3eZDPAeLyrzUM5OH_k-13" style="edgeStyle=orthogonalEdgeStyle;rounded=0;orthogonalLoop=1;jettySize=auto;html=1;fontSize=14;" edge="1" parent="1" source="lW3eZDPAeLyrzUM5OH_k-10" target="lW3eZDPAeLyrzUM5OH_k-11">
          <mxGeometry relative="1" as="geometry" />
        </mxCell>
        <mxCell id="lW3eZDPAeLyrzUM5OH_k-10" value="&lt;div&gt;TESTING- Family Plan Client&lt;br&gt;&lt;/div&gt;" style="aspect=fixed;html=1;points=[];align=center;image;fontSize=12;image=img/lib/azure2/general/Backlog.svg;" vertex="1" parent="1">
          <mxGeometry x="230" y="40" width="68" height="60" as="geometry" />
        </mxCell>
        <mxCell id="lW3eZDPAeLyrzUM5OH_k-87" style="edgeStyle=orthogonalEdgeStyle;rounded=0;orthogonalLoop=1;jettySize=auto;html=1;entryX=0;entryY=0.5;entryDx=0;entryDy=0;entryPerimeter=0;fontSize=14;" edge="1" parent="1" source="lW3eZDPAeLyrzUM5OH_k-11" target="lW3eZDPAeLyrzUM5OH_k-44">
          <mxGeometry relative="1" as="geometry" />
        </mxCell>
        <mxCell id="lW3eZDPAeLyrzUM5OH_k-11" value="&lt;div&gt;Family Plan CLIENT - TESTING&lt;/div&gt;" style="aspect=fixed;html=1;points=[];align=center;image;fontSize=12;image=img/lib/azure2/general/Backlog.svg;" vertex="1" parent="1">
          <mxGeometry x="450" y="40" width="68" height="60" as="geometry" />
        </mxCell>
        <mxCell id="lW3eZDPAeLyrzUM5OH_k-115" style="edgeStyle=orthogonalEdgeStyle;rounded=0;orthogonalLoop=1;jettySize=auto;html=1;entryX=0.5;entryY=0;entryDx=0;entryDy=0;fontSize=16;fontColor=#EA6B66;" edge="1" parent="1" source="lW3eZDPAeLyrzUM5OH_k-19" target="lW3eZDPAeLyrzUM5OH_k-114">
          <mxGeometry relative="1" as="geometry" />
        </mxCell>
        <mxCell id="lW3eZDPAeLyrzUM5OH_k-19" value="admin-test-gezinsplan.baloise.be" style="verticalLabelPosition=bottom;html=1;verticalAlign=top;align=center;strokeColor=none;fillColor=#00BEF2;shape=mxgraph.azure.computer;pointerEvents=1;fontSize=14;" vertex="1" parent="1">
          <mxGeometry x="535" y="-130" width="50" height="45" as="geometry" />
        </mxCell>
        <mxCell id="lW3eZDPAeLyrzUM5OH_k-94" style="edgeStyle=orthogonalEdgeStyle;rounded=0;orthogonalLoop=1;jettySize=auto;html=1;fontSize=14;" edge="1" parent="1" source="lW3eZDPAeLyrzUM5OH_k-32" target="lW3eZDPAeLyrzUM5OH_k-33">
          <mxGeometry relative="1" as="geometry" />
        </mxCell>
        <mxCell id="lW3eZDPAeLyrzUM5OH_k-32" value="&lt;div&gt;FP-CLIENT&lt;br&gt;&lt;/div&gt;&lt;div&gt;release/acceptance&lt;br&gt;&lt;/div&gt;" style="verticalLabelPosition=bottom;html=1;verticalAlign=top;align=center;strokeColor=none;fillColor=#00BEF2;shape=mxgraph.azure.bitbucket_code_source;fontSize=14;" vertex="1" parent="1">
          <mxGeometry x="20" y="350" width="100" height="100" as="geometry" />
        </mxCell>
        <mxCell id="lW3eZDPAeLyrzUM5OH_k-95" style="edgeStyle=orthogonalEdgeStyle;rounded=0;orthogonalLoop=1;jettySize=auto;html=1;fontSize=14;" edge="1" parent="1" source="lW3eZDPAeLyrzUM5OH_k-33" target="lW3eZDPAeLyrzUM5OH_k-34">
          <mxGeometry relative="1" as="geometry" />
        </mxCell>
        <mxCell id="lW3eZDPAeLyrzUM5OH_k-33" value="&lt;div&gt;ACCEPTANCE - Family Plan Client&lt;br&gt;&lt;/div&gt;" style="aspect=fixed;html=1;points=[];align=center;image;fontSize=12;image=img/lib/azure2/general/Backlog.svg;" vertex="1" parent="1">
          <mxGeometry x="220" y="370" width="68" height="60" as="geometry" />
        </mxCell>
        <mxCell id="lW3eZDPAeLyrzUM5OH_k-96" style="edgeStyle=orthogonalEdgeStyle;rounded=0;orthogonalLoop=1;jettySize=auto;html=1;entryX=-0.04;entryY=0.66;entryDx=0;entryDy=0;entryPerimeter=0;fontSize=14;" edge="1" parent="1" source="lW3eZDPAeLyrzUM5OH_k-34" target="lW3eZDPAeLyrzUM5OH_k-3">
          <mxGeometry relative="1" as="geometry" />
        </mxCell>
        <mxCell id="lW3eZDPAeLyrzUM5OH_k-34" value="&lt;div&gt;Family Plan CLIENT - ACCEPTANCE&lt;br&gt;&lt;/div&gt;" style="aspect=fixed;html=1;points=[];align=center;image;fontSize=12;image=img/lib/azure2/general/Backlog.svg;" vertex="1" parent="1">
          <mxGeometry x="450" y="370" width="68" height="60" as="geometry" />
        </mxCell>
        <mxCell id="lW3eZDPAeLyrzUM5OH_k-48" style="edgeStyle=orthogonalEdgeStyle;rounded=0;orthogonalLoop=1;jettySize=auto;html=1;fontSize=14;" edge="1" parent="1" source="lW3eZDPAeLyrzUM5OH_k-37" target="lW3eZDPAeLyrzUM5OH_k-40">
          <mxGeometry relative="1" as="geometry" />
        </mxCell>
        <mxCell id="lW3eZDPAeLyrzUM5OH_k-37" value="&lt;div&gt;FP-ADMIN&lt;br&gt;&lt;/div&gt;&lt;div&gt;release/acceptance&lt;br&gt;&lt;/div&gt;" style="verticalLabelPosition=bottom;html=1;verticalAlign=top;align=center;strokeColor=none;fillColor=#00BEF2;shape=mxgraph.azure.bitbucket_code_source;fontSize=14;" vertex="1" parent="1">
          <mxGeometry x="20" y="520" width="100" height="100" as="geometry" />
        </mxCell>
        <mxCell id="lW3eZDPAeLyrzUM5OH_k-97" style="edgeStyle=orthogonalEdgeStyle;rounded=0;orthogonalLoop=1;jettySize=auto;html=1;fontSize=14;" edge="1" parent="1" source="lW3eZDPAeLyrzUM5OH_k-38" target="lW3eZDPAeLyrzUM5OH_k-39">
          <mxGeometry relative="1" as="geometry" />
        </mxCell>
        <mxCell id="lW3eZDPAeLyrzUM5OH_k-38" value="&lt;div&gt;FP-ADMIN&lt;br&gt;&lt;/div&gt;&lt;div&gt;feature/testing&lt;/div&gt;" style="verticalLabelPosition=bottom;html=1;verticalAlign=top;align=center;strokeColor=none;fillColor=#00BEF2;shape=mxgraph.azure.bitbucket_code_source;fontSize=14;" vertex="1" parent="1">
          <mxGeometry x="20" y="180" width="100" height="100" as="geometry" />
        </mxCell>
        <mxCell id="lW3eZDPAeLyrzUM5OH_k-98" style="edgeStyle=orthogonalEdgeStyle;rounded=0;orthogonalLoop=1;jettySize=auto;html=1;fontSize=14;" edge="1" parent="1" source="lW3eZDPAeLyrzUM5OH_k-39" target="lW3eZDPAeLyrzUM5OH_k-41">
          <mxGeometry relative="1" as="geometry" />
        </mxCell>
        <mxCell id="lW3eZDPAeLyrzUM5OH_k-39" value="&lt;div&gt;TESTING - Family Plan Admin&lt;br&gt;&lt;/div&gt;" style="aspect=fixed;html=1;points=[];align=center;image;fontSize=12;image=img/lib/azure2/general/Backlog.svg;" vertex="1" parent="1">
          <mxGeometry x="220" y="200" width="68" height="60" as="geometry" />
        </mxCell>
        <mxCell id="lW3eZDPAeLyrzUM5OH_k-49" style="edgeStyle=orthogonalEdgeStyle;rounded=0;orthogonalLoop=1;jettySize=auto;html=1;fontSize=14;" edge="1" parent="1" source="lW3eZDPAeLyrzUM5OH_k-40" target="lW3eZDPAeLyrzUM5OH_k-42">
          <mxGeometry relative="1" as="geometry" />
        </mxCell>
        <mxCell id="lW3eZDPAeLyrzUM5OH_k-40" value="&lt;div&gt;ACCEPTANCE - Family Plan Admin&lt;br&gt;&lt;/div&gt;" style="aspect=fixed;html=1;points=[];align=center;image;fontSize=12;image=img/lib/azure2/general/Backlog.svg;" vertex="1" parent="1">
          <mxGeometry x="230" y="540" width="68" height="60" as="geometry" />
        </mxCell>
        <mxCell id="lW3eZDPAeLyrzUM5OH_k-99" style="edgeStyle=orthogonalEdgeStyle;rounded=0;orthogonalLoop=1;jettySize=auto;html=1;entryX=0;entryY=0.5;entryDx=0;entryDy=0;entryPerimeter=0;fontSize=14;" edge="1" parent="1" source="lW3eZDPAeLyrzUM5OH_k-41" target="lW3eZDPAeLyrzUM5OH_k-86">
          <mxGeometry relative="1" as="geometry" />
        </mxCell>
        <mxCell id="lW3eZDPAeLyrzUM5OH_k-41" value="&lt;div&gt;Family Plan ADMIN - TESTING&lt;/div&gt;" style="aspect=fixed;html=1;points=[];align=center;image;fontSize=12;image=img/lib/azure2/general/Backlog.svg;" vertex="1" parent="1">
          <mxGeometry x="450" y="200" width="68" height="60" as="geometry" />
        </mxCell>
        <mxCell id="lW3eZDPAeLyrzUM5OH_k-56" style="edgeStyle=orthogonalEdgeStyle;rounded=0;orthogonalLoop=1;jettySize=auto;html=1;entryX=0;entryY=0.5;entryDx=0;entryDy=0;entryPerimeter=0;fontSize=14;" edge="1" parent="1" source="lW3eZDPAeLyrzUM5OH_k-42" target="lW3eZDPAeLyrzUM5OH_k-43">
          <mxGeometry relative="1" as="geometry" />
        </mxCell>
        <mxCell id="lW3eZDPAeLyrzUM5OH_k-42" value="&lt;div&gt;Family Plan ADMIN - ACCEPTANCE&lt;br&gt;&lt;/div&gt;" style="aspect=fixed;html=1;points=[];align=center;image;fontSize=12;image=img/lib/azure2/general/Backlog.svg;" vertex="1" parent="1">
          <mxGeometry x="450" y="540" width="68" height="60" as="geometry" />
        </mxCell>
        <mxCell id="lW3eZDPAeLyrzUM5OH_k-85" style="edgeStyle=orthogonalEdgeStyle;rounded=0;orthogonalLoop=1;jettySize=auto;html=1;fontSize=14;" edge="1" parent="1" source="lW3eZDPAeLyrzUM5OH_k-43" target="lW3eZDPAeLyrzUM5OH_k-5">
          <mxGeometry relative="1" as="geometry" />
        </mxCell>
        <mxCell id="lW3eZDPAeLyrzUM5OH_k-91" style="edgeStyle=orthogonalEdgeStyle;rounded=0;orthogonalLoop=1;jettySize=auto;html=1;entryX=1;entryY=0.5;entryDx=0;entryDy=0;entryPerimeter=0;fontSize=14;" edge="1" parent="1" source="lW3eZDPAeLyrzUM5OH_k-43" target="lW3eZDPAeLyrzUM5OH_k-8">
          <mxGeometry relative="1" as="geometry">
            <Array as="points">
              <mxPoint x="920" y="570" />
              <mxPoint x="920" y="310" />
            </Array>
          </mxGeometry>
        </mxCell>
        <mxCell id="lW3eZDPAeLyrzUM5OH_k-43" value="&lt;div&gt;Aplication service&lt;/div&gt;&lt;div&gt;admin-acc-gezinsplan&lt;br&gt;&lt;/div&gt;" style="verticalLabelPosition=bottom;html=1;verticalAlign=top;align=center;strokeColor=none;fillColor=#00BEF2;shape=mxgraph.azure.azure_website;pointerEvents=1;fontSize=14;" vertex="1" parent="1">
          <mxGeometry x="650" y="545" width="50" height="50" as="geometry" />
        </mxCell>
        <mxCell id="lW3eZDPAeLyrzUM5OH_k-93" style="edgeStyle=orthogonalEdgeStyle;rounded=0;orthogonalLoop=1;jettySize=auto;html=1;entryX=1;entryY=0.5;entryDx=0;entryDy=0;entryPerimeter=0;fontSize=14;" edge="1" parent="1" source="lW3eZDPAeLyrzUM5OH_k-44" target="lW3eZDPAeLyrzUM5OH_k-8">
          <mxGeometry relative="1" as="geometry">
            <Array as="points">
              <mxPoint x="920" y="70" />
              <mxPoint x="920" y="310" />
            </Array>
          </mxGeometry>
        </mxCell>
        <mxCell id="lW3eZDPAeLyrzUM5OH_k-44" value="&lt;div&gt;Aplication service&lt;/div&gt;&lt;div&gt;test-gezinsplan&lt;br&gt;&lt;/div&gt;" style="verticalLabelPosition=bottom;html=1;verticalAlign=top;align=center;strokeColor=none;fillColor=#00BEF2;shape=mxgraph.azure.azure_website;pointerEvents=1;fontSize=14;" vertex="1" parent="1">
          <mxGeometry x="650" y="45" width="50" height="50" as="geometry" />
        </mxCell>
        <mxCell id="lW3eZDPAeLyrzUM5OH_k-106" style="edgeStyle=orthogonalEdgeStyle;rounded=0;orthogonalLoop=1;jettySize=auto;html=1;entryX=0.5;entryY=1;entryDx=0;entryDy=0;entryPerimeter=0;fontSize=14;" edge="1" parent="1" source="lW3eZDPAeLyrzUM5OH_k-61" target="lW3eZDPAeLyrzUM5OH_k-44">
          <mxGeometry relative="1" as="geometry" />
        </mxCell>
        <mxCell id="lW3eZDPAeLyrzUM5OH_k-61" value="fp-admin-testing" style="verticalLabelPosition=bottom;html=1;verticalAlign=top;align=center;strokeColor=none;fillColor=#00BEF2;shape=mxgraph.azure.mysql_database;fontSize=14;" vertex="1" parent="1">
          <mxGeometry x="960" y="110" width="70" height="80" as="geometry" />
        </mxCell>
        <mxCell id="lW3eZDPAeLyrzUM5OH_k-89" style="edgeStyle=orthogonalEdgeStyle;rounded=0;orthogonalLoop=1;jettySize=auto;html=1;entryX=0.5;entryY=0;entryDx=0;entryDy=0;entryPerimeter=0;fontSize=14;" edge="1" parent="1" source="lW3eZDPAeLyrzUM5OH_k-86" target="lW3eZDPAeLyrzUM5OH_k-8">
          <mxGeometry relative="1" as="geometry" />
        </mxCell>
        <mxCell id="lW3eZDPAeLyrzUM5OH_k-103" style="edgeStyle=orthogonalEdgeStyle;rounded=0;orthogonalLoop=1;jettySize=auto;html=1;fontSize=14;" edge="1" parent="1" source="lW3eZDPAeLyrzUM5OH_k-86" target="lW3eZDPAeLyrzUM5OH_k-61">
          <mxGeometry relative="1" as="geometry" />
        </mxCell>
        <mxCell id="lW3eZDPAeLyrzUM5OH_k-86" value="&lt;div&gt;Aplication service&lt;/div&gt;&lt;div&gt;admin-test-gezinsplan&lt;br&gt;&lt;/div&gt;" style="verticalLabelPosition=bottom;html=1;verticalAlign=top;align=center;strokeColor=none;fillColor=#00BEF2;shape=mxgraph.azure.azure_website;pointerEvents=1;fontSize=14;" vertex="1" parent="1">
          <mxGeometry x="650" y="200" width="50" height="50" as="geometry" />
        </mxCell>
        <mxCell id="lW3eZDPAeLyrzUM5OH_k-107" value="The build pipeline" style="rounded=1;arcSize=10;dashed=1;strokeColor=#F59D56;fillColor=none;gradientColor=none;dashPattern=8 4;strokeWidth=2;fontSize=16;fontColor=#EA6B66;fontStyle=1;labelPosition=center;verticalLabelPosition=top;align=center;verticalAlign=bottom;" vertex="1" parent="1">
          <mxGeometry x="164.25" width="199.5" height="679.5" as="geometry" />
        </mxCell>
        <mxCell id="lW3eZDPAeLyrzUM5OH_k-110" value="The release pipeline" style="rounded=1;arcSize=10;dashed=1;strokeColor=#F59D56;fillColor=none;gradientColor=none;dashPattern=8 4;strokeWidth=2;fontSize=16;fontColor=#EA6B66;fontStyle=1;labelPosition=center;verticalLabelPosition=top;align=center;verticalAlign=bottom;" vertex="1" parent="1">
          <mxGeometry x="380" width="209.5" height="679.5" as="geometry" />
        </mxCell>
        <mxCell id="lW3eZDPAeLyrzUM5OH_k-116" style="edgeStyle=orthogonalEdgeStyle;rounded=0;orthogonalLoop=1;jettySize=auto;html=1;entryX=0.5;entryY=0;entryDx=0;entryDy=0;fontSize=16;fontColor=#EA6B66;" edge="1" parent="1" source="lW3eZDPAeLyrzUM5OH_k-111" target="lW3eZDPAeLyrzUM5OH_k-114">
          <mxGeometry relative="1" as="geometry" />
        </mxCell>
        <mxCell id="lW3eZDPAeLyrzUM5OH_k-111" value="&lt;div&gt;test-gezinsplan.baloise.be&lt;/div&gt;&lt;div&gt;test-planfamille.baloise.be&lt;br&gt;&lt;/div&gt;" style="verticalLabelPosition=bottom;html=1;verticalAlign=top;align=center;strokeColor=none;fillColor=#00BEF2;shape=mxgraph.azure.computer;pointerEvents=1;fontSize=14;" vertex="1" parent="1">
          <mxGeometry x="770" y="-130" width="50" height="45" as="geometry" />
        </mxCell>
        <mxCell id="lW3eZDPAeLyrzUM5OH_k-120" style="edgeStyle=orthogonalEdgeStyle;rounded=0;orthogonalLoop=1;jettySize=auto;html=1;entryX=0.5;entryY=1;entryDx=0;entryDy=0;fontSize=16;fontColor=#EA6B66;" edge="1" parent="1" source="lW3eZDPAeLyrzUM5OH_k-112" target="lW3eZDPAeLyrzUM5OH_k-117">
          <mxGeometry relative="1" as="geometry" />
        </mxCell>
        <mxCell id="lW3eZDPAeLyrzUM5OH_k-112" value="admin-acc-gezinsplan.baloise.be" style="verticalLabelPosition=bottom;html=1;verticalAlign=top;align=center;strokeColor=none;fillColor=#00BEF2;shape=mxgraph.azure.computer;pointerEvents=1;fontSize=14;" vertex="1" parent="1">
          <mxGeometry x="535" y="710" width="50" height="45" as="geometry" />
        </mxCell>
        <mxCell id="lW3eZDPAeLyrzUM5OH_k-121" style="edgeStyle=orthogonalEdgeStyle;rounded=0;orthogonalLoop=1;jettySize=auto;html=1;fontSize=16;fontColor=#EA6B66;" edge="1" parent="1" source="lW3eZDPAeLyrzUM5OH_k-113" target="lW3eZDPAeLyrzUM5OH_k-117">
          <mxGeometry relative="1" as="geometry" />
        </mxCell>
        <mxCell id="lW3eZDPAeLyrzUM5OH_k-113" value="&lt;div&gt;acc-gezinsplan.baloise.be&lt;/div&gt;&lt;div&gt;acc-planfamille.baloise.be&lt;br&gt;&lt;/div&gt;" style="verticalLabelPosition=bottom;html=1;verticalAlign=top;align=center;strokeColor=none;fillColor=#00BEF2;shape=mxgraph.azure.computer;pointerEvents=1;fontSize=14;" vertex="1" parent="1">
          <mxGeometry x="770" y="710" width="50" height="45" as="geometry" />
        </mxCell>
        <mxCell id="lW3eZDPAeLyrzUM5OH_k-114" value="AZURE" style="rounded=1;arcSize=10;dashed=1;fillColor=none;gradientColor=none;dashPattern=8 4;strokeWidth=2;fontSize=16;fontColor=#EA6B66;strokeColor=#FFD966;verticalAlign=middle;" vertex="1" parent="1">
          <mxGeometry x="600" width="150" height="320" as="geometry" />
        </mxCell>
        <mxCell id="lW3eZDPAeLyrzUM5OH_k-117" value="AZURE" style="rounded=1;arcSize=10;dashed=1;fillColor=none;gradientColor=none;dashPattern=8 4;strokeWidth=2;fontSize=16;fontColor=#EA6B66;strokeColor=#FFD966;labelPosition=center;verticalLabelPosition=middle;align=center;verticalAlign=middle;" vertex="1" parent="1">
          <mxGeometry x="600" y="340" width="150" height="340" as="geometry" />
        </mxCell>
      </root>
    </mxGraphModel>
  </diagram>
</mxfile>
